<?xml version="1.0" encoding="UTF-8"?>
<svg width="392px" height="393px" viewBox="0 0 392 393" version="1.1" xmlns="http://www.w3.org/2000/svg" xmlns:xlink="http://www.w3.org/1999/xlink">
    <title>Artboard</title>
    <defs>
        <linearGradient x1="43.3760053%" y1="2.24179788%" x2="50.3158848%" y2="89.0299051%" id="linearGradient-1">
            <stop stop-color="#FFEA83" offset="0%"></stop>
            <stop stop-color="#FFDD35" offset="8.33333%"></stop>
            <stop stop-color="#FFA800" offset="100%"></stop>
        </linearGradient>
        <linearGradient x1="-0.828097821%" y1="7.6518539%" x2="57.6359644%" y2="78.4107719%" id="linearGradient-2">
            <stop stop-color="#41D1FF" offset="0%"></stop>
            <stop stop-color="#BD34FE" offset="100%"></stop>
        </linearGradient>
    </defs>
    <g id="Artboard" stroke="none" stroke-width="1" fill="none" fill-rule="evenodd">
        <g id="favicon" transform="translate(196.090437, 196.570906) scale(1, -1) translate(-196.090437, -196.570906) translate(0.243774, 0.477848)" fill-rule="nonzero">
            <path d="M283.721226,0.096552237 L147.557226,26.7773522 C145.319226,27.2158522 143.662226,29.1124522 143.527226,31.3885522 L135.151226,172.852152 C134.954226,176.184152 138.014226,178.770152 141.266226,178.020152 L179.176226,169.271152 C182.723226,168.453152 185.928226,171.577152 185.199226,175.144152 L173.936226,230.297152 C173.178226,234.009152 176.663226,237.183152 180.288226,236.082152 L203.703226,228.968152 C207.333226,227.866152 210.821226,231.049152 210.053226,234.764152 L192.154226,321.397152 C191.034226,326.816152 198.242226,329.771152 201.248226,325.125152 L203.256226,322.022152 L314.210226,100.594152 C316.068226,96.8866522 312.864226,92.6591522 308.792226,93.4449522 L269.770226,100.976152 C266.103226,101.683152 262.983226,98.2681522 264.018226,94.6804522 L289.487226,6.38904224 C290.523226,2.79529224 287.392226,-0.622666763 283.721226,0.096552237 Z" id="Path" fill="url(#linearGradient-1)"></path>
            <path d="M390.397226,58.0467522 L206.399226,387.067152 C202.600226,393.860152 192.840226,393.900152 188.984226,387.140152 L1.3379261,58.0784522 C-2.8629039,50.7117522 3.4364261,41.7886522 11.7843261,43.2807522 L195.979226,76.2045522 C197.154226,76.4145522 198.357226,76.4125522 199.532226,76.1984522 L379.875226,43.3279522 C388.195226,41.8115522 394.524226,50.6655522 390.397226,58.0467522 Z" id="Path" fill="url(#linearGradient-2)"></path>
        </g>
        <text id="火" font-family="HiraginoSans-W3, Hiragino Sans" font-size="184.04" font-weight="300" letter-spacing="-0.0200043478" fill="#FFFFFF">
            <tspan x="103.590437" y="275.570906">火</tspan>
        </text>
    </g>
</svg>